<?xml version="1.0" encoding="UTF-8"?>
<svg width="224px" height="226px" viewBox="0 0 224 226" version="1.1" xmlns="http://www.w3.org/2000/svg" xmlns:xlink="http://www.w3.org/1999/xlink">
    <!-- Generator: Sketch 52.5 (67469) - http://www.bohemiancoding.com/sketch -->
    <title>react-messenger</title>
    <desc>Created with Sketch.</desc>
    <defs>
        <linearGradient x1="50%" y1="6.76%" x2="50%" y2="95.6%" id="linearGradient-1">
            <stop stop-color="#00C6FF" offset="0%"></stop>
            <stop stop-color="#0068FF" offset="100%"></stop>
        </linearGradient>
        <linearGradient x1="50%" y1="0%" x2="50%" y2="100%" id="linearGradient-2">
            <stop stop-color="#FFFFFF" offset="0%"></stop>
            <stop stop-color="#FFFFFF" stop-opacity="0.75" offset="100%"></stop>
        </linearGradient>
    </defs>
    <g id="Page-1" stroke="none" stroke-width="1" fill="none" fill-rule="evenodd">
        <g id="react-messenger">
            <g id="Facebook_Messenger_logo" fill="url(#linearGradient-1)">
                <path d="M41.255,185.52 L41.255,225.72 L78.844,204.35 C89.322,207.37 100.46,209 112,209 C173.86,209 224,162.21 224,104.5 C224,46.786 173.86,2.84217094e-14 112,2.84217094e-14 C50.144,2.84217094e-14 0,46.786 0,104.5 C0,137.18 16.078,166.36 41.255,185.52 Z" id="Path"></path>
            </g>
            <g id="React-icon" transform="translate(37.000000, 38.000000)" fill="url(#linearGradient-2)" fill-rule="nonzero">
                <path d="M149.786585,66.6158537 C149.786585,76.4939024 137.439024,85.8841463 118.536585,91.7073171 C122.957317,111.036585 121.036585,126.432927 112.469512,131.371951 C110.457317,132.530488 108.140244,133.079268 105.579268,133.079268 C97.195122,133.079268 86.2195122,127.164634 75.1219512,116.859756 C64.0243902,127.22561 53.0487805,133.20122 44.6646341,133.20122 C42.1036585,133.20122 39.7865854,132.652439 37.804878,131.493902 C29.2073171,126.554878 27.2560976,111.128049 31.6463415,91.7378049 C12.6219512,85.9146341 0.213414634,76.5243902 0.213414634,66.6158537 C0.213414634,56.7378049 12.5609756,47.3780488 31.5243902,41.5243902 C27.1036585,22.195122 29.0243902,6.79878049 37.5914634,1.8597561 C39.6036585,0.701219512 41.9207317,0.152439024 44.4817073,0.152439024 L44.4817073,6.95121951 C43.0792683,6.95121951 41.8902439,7.19512195 40.9756098,7.74390244 C36.8597561,10.152439 35.0914634,19.2073171 36.5243902,30.8536585 C36.8902439,33.6890244 37.4085366,36.6463415 38.1097561,39.695122 C44.0853659,38.2012195 50.6097561,37.0731707 57.5,36.3414634 C61.554878,30.7012195 65.8231707,25.6097561 70.0914634,21.1280488 C60.152439,11.9512195 50.7926829,6.92073171 44.4817073,6.92073171 L44.4817073,0.12195122 C52.8658537,0.12195122 63.8414634,6.03658537 74.9390244,16.3414634 C86.0365854,5.97560976 97.0121951,1.42108547e-14 105.396341,1.42108547e-14 L105.396341,6.79878049 C99.054878,6.79878049 89.7256098,11.8597561 79.7865854,21.097561 C84.0853659,25.5792683 88.3536585,30.7012195 92.4695122,36.3414634 C99.3292683,37.0731707 105.853659,38.2012195 111.829268,39.6646341 C112.5,36.5853659 113.04878,33.5670732 113.384146,30.7012195 C114.786585,19.054878 112.987805,10 108.841463,7.62195122 C107.896341,7.10365854 106.768293,6.82926829 105.365854,6.82926829 L105.365854,0.0304878049 C107.896341,0.0304878049 110.213415,0.579268293 112.195122,1.73780488 C120.792683,6.67682927 122.743902,22.1036585 118.353659,41.4939024 C137.378049,47.3170732 149.786585,56.7073171 149.786585,66.6158537 Z M110.091463,46.2804878 C106.097561,45.304878 101.920732,44.5121951 97.5914634,43.8719512 C99.0853659,46.1890244 100.579268,48.5670732 101.981707,51.0060976 C103.414634,53.445122 104.72561,55.8841463 105.97561,58.3231707 C107.560976,54.2682927 108.963415,50.2134146 110.091463,46.2804878 Z M96.1280488,78.75 C98.4146341,74.7560976 100.518293,70.6707317 102.439024,66.5853659 C100.518293,62.5 98.4146341,58.445122 96.097561,54.4512195 C93.7195122,50.3658537 91.25,46.4939024 88.7195122,42.8658537 C84.2073171,42.5 79.6036585,42.2865854 75,42.2865854 C70.3658537,42.2865854 65.7621951,42.5 61.2195122,42.8963415 C58.6890244,46.5243902 56.25,50.4268293 53.8719512,54.5426829 C51.5853659,58.5365854 49.4512195,62.6219512 47.5609756,66.7073171 C49.4817073,70.7926829 51.5853659,74.847561 53.902439,78.8414634 C56.2804878,82.9268293 58.75,86.7987805 61.2804878,90.4268293 C65.7926829,90.7926829 70.3963415,91.0060976 75,91.0060976 C79.6341463,91.0060976 84.2378049,90.7926829 88.7804878,90.3963415 C91.3109756,86.7682927 93.75,82.8658537 96.1280488,78.75 Z M105.97561,74.7865854 C104.72561,77.2256098 103.414634,79.695122 102.012195,82.1341463 C100.609756,84.6036585 99.1158537,87.0121951 97.6219512,89.3597561 C101.981707,88.7195122 106.189024,87.8963415 110.182927,86.9207317 C109.02439,82.9573171 107.621951,78.8719512 105.97561,74.7865854 Z M75.0609756,107.317073 C77.8658537,104.390244 80.7012195,101.128049 83.445122,97.5609756 C80.6707317,97.7134146 77.8353659,97.7743902 74.9695122,97.7743902 C72.1341463,97.7743902 69.3292683,97.6829268 66.5853659,97.5609756 C69.3902439,101.128049 72.2256098,104.390244 75.0609756,107.317073 Z M52.3780488,89.3597561 C50.8841463,87.0426829 49.4207317,84.6646341 47.9878049,82.2256098 C46.554878,79.7865854 45.2439024,77.347561 43.9939024,74.9085366 C42.4085366,78.9634146 41.0060976,83.0182927 39.8780488,86.9512195 C43.8719512,87.9268293 48.0487805,88.7195122 52.3780488,89.3597561 Z M74.9085366,25.9146341 C72.1036585,28.8414634 69.2682927,32.1036585 66.5243902,35.6707317 C69.2987805,35.5182927 72.1341463,35.4573171 75,35.4573171 C77.8353659,35.4573171 80.6402439,35.5487805 83.3841463,35.6707317 C80.5792683,32.1036585 77.7439024,28.8414634 74.9085366,25.9146341 Z M52.347561,43.8719512 C47.9878049,44.5121951 43.7804878,45.3353659 39.7865854,46.2804878 C40.945122,50.2439024 42.347561,54.3292683 43.9939024,58.4146341 C45.2439024,55.9756098 46.554878,53.5365854 47.9573171,51.097561 C49.3597561,48.6280488 50.8536585,46.2195122 52.347561,43.8719512 Z M24.7560976,82.0426829 C27.4085366,83.1707317 30.2743902,84.2073171 33.2926829,85.152439 C35,79.2073171 37.2560976,73.0182927 40.0609756,66.6768293 C37.2256098,60.304878 34.9390244,54.0853659 33.2012195,48.1097561 C30.2439024,49.054878 27.3780488,50.0609756 24.7560976,51.1890244 C13.9634146,55.7621951 6.98170732,61.8292683 6.98170732,66.6158537 C6.98170732,71.402439 13.9634146,77.4390244 24.7560976,82.0426829 Z M41.1585366,125.609756 C42.0731707,126.128049 43.2317073,126.402439 44.6036585,126.432927 C50.945122,126.432927 60.2743902,121.371951 70.2134146,112.134146 C65.9146341,107.652439 61.6463415,102.530488 57.5304878,96.8902439 C50.6707317,96.1585366 44.1463415,95.0304878 38.1707317,93.5670732 C37.5,96.6463415 36.9512195,99.6646341 36.6158537,102.530488 C35.2134146,114.176829 37.0121951,123.231707 41.1585366,125.609756 Z M113.47561,102.378049 C113.140244,99.5426829 112.591463,96.5853659 111.890244,93.5060976 C105.914634,95 99.3902439,96.1280488 92.5,96.8597561 C88.445122,102.5 84.1768293,107.591463 79.9085366,112.073171 C89.847561,121.25 99.2073171,126.280488 105.518293,126.280488 C106.920732,126.280488 108.109756,126.036585 109.02439,125.487805 C113.140244,123.079268 114.908537,114.02439 113.47561,102.378049 Z M125.213415,82.0426829 C136.006098,77.4695122 142.987805,71.402439 143.018293,66.6158537 C143.018293,61.8292683 136.036585,55.7926829 125.243902,51.1890244 C122.560976,50.0609756 119.695122,49.0243902 116.676829,48.0792683 C114.969512,54.0243902 112.713415,60.2134146 109.908537,66.554878 C112.743902,72.9268293 115.030488,79.1463415 116.768293,85.1219512 C119.72561,84.1768293 122.591463,83.1707317 125.213415,82.0426829 Z M74.9695122,80.5487805 C67.2745692,80.5487805 61.0365854,74.3107967 61.0365854,66.6158537 C61.0365854,58.9209107 67.2745692,52.6829268 74.9695122,52.6829268 C82.6644552,52.6829268 88.902439,58.9209107 88.902439,66.6158537 C88.902439,74.3107967 82.6644552,80.5487805 74.9695122,80.5487805 Z" id="Combined-Shape"></path>
            </g>
        </g>
    </g>
</svg>